<svg xmlns="http://www.w3.org/2000/svg" xmlns:xlink="http://www.w3.org/1999/xlink" preserveAspectRatio="none"
     viewBox="0 0 1200 628">
  <g id="background">
    <path fill="#0483a0"
          d="M1162.86,188.35l10.75,7.87h0c-29.17-91.3-72.44-189.37-75.76-196.59H854.9C867.74,5.8,1014.82,80.36,1162.86,188.35Z"
          transform="translate(1.21 0.37)"/>
    <path fill="#0496ad" d="M1097.85-.37c3.32,7.22,46.57,105.29,75.76,196.68h0q13.44,9.93,26.81,20.28V-.37Z"
          transform="translate(1.21 0.37)"/>
    <path fill="#005281"
          d="M-1.21,363.8c37.83,21.89,154.47,93,387.24,264.48l.36.27h814v-412q-13.38-10.34-26.81-20.28-5.35-4-10.75-7.87c-148-108-295.12-182.61-308-188.78H-1.21Z"
          transform="translate(1.21 0.37)"/>
    <path fill="#013c66" d="M386,628.28C153.26,456.76,36.62,385.69-1.21,363.8v264Z"
          transform="translate(1.21 0.37)"/>
  </g>
</svg>
