<?xml version="1.0" encoding="utf-8"?>
<svg version="1.1" id="Ebene_1" xmlns="http://www.w3.org/2000/svg" xmlns:xlink="http://www.w3.org/1999/xlink" x="0px" y="0px"
	 viewBox="0 0 1174.2 340.3" style="enable-background:new 0 0 1174.2 340.3;" xml:space="preserve">
<style type="text/css">
	.st0{fill:#34ACE1;}
	.st1{fill:#696766;}
	.st2{fill:#C6C6C6;}
	
		.st3{clip-path:url(#SVGID_00000182502843722598263880000011505426140534928786_);fill:url(#SVGID_00000093891380700632967810000013239301063362412972_);}
	
		.st4{clip-path:url(#SVGID_00000037692792610144448400000013567985739109100946_);fill:url(#SVGID_00000064334021448403973450000010211458062852530853_);}
	
		.st5{clip-path:url(#SVGID_00000023980901247381417610000010244923388416046270_);fill:url(#SVGID_00000051385525749430930630000015477819280306328479_);}
	
		.st6{clip-path:url(#SVGID_00000103986262130033633440000009721511390330776468_);fill:url(#SVGID_00000171687717792220032490000008810934744952577165_);}
	
		.st7{clip-path:url(#SVGID_00000034770245554361922980000014322849888436807585_);fill:url(#SVGID_00000018221239523316562200000003920743095725115052_);}
	.st8{fill:#FFFFFF;}
	
		.st9{clip-path:url(#SVGID_00000086657209732195993490000008273849662041061256_);fill:url(#SVGID_00000039129269027690777120000001301868647731398064_);}
	
		.st10{clip-path:url(#SVGID_00000067954874802537278340000002580236650940536193_);fill:url(#SVGID_00000121266571482360105110000002897062816673691801_);}
	
		.st11{clip-path:url(#SVGID_00000083080110568909996810000013677039641311386279_);fill:url(#SVGID_00000056400997358901561220000015483217065343876534_);}
	
		.st12{clip-path:url(#SVGID_00000168824071264801091520000013237664373212486553_);fill:url(#SVGID_00000166676656128368793580000000314727436173404088_);}
	
		.st13{clip-path:url(#SVGID_00000109724044604553778020000009815486511147398016_);fill:url(#SVGID_00000008146428615827220830000005376042380881845406_);}
</style>
<path class="st0" d="M253.5,193c-2.4,1.9-3.6,4.3-3.6,7.3c0,3,1.3,5.3,3.8,7.1c2.5,1.7,7.9,3.6,16.1,5.6c8.2,2,14.4,4.8,18.6,8.4
	c4.2,3.6,6.2,8.9,6.2,15.9c0,7-2.6,12.7-7.9,17c-5.3,4.4-12.2,6.5-20.8,6.5c-12.5,0-23.7-4.3-33.4-13l8.5-10.2
	c8.1,7,16.5,10.6,25.2,10.6c4.4,0,7.8-0.9,10.4-2.8c2.6-1.9,3.8-4.4,3.8-7.5c0-3.1-1.2-5.5-3.6-7.2c-2.4-1.7-6.6-3.3-12.5-4.7
	c-5.9-1.4-10.4-2.7-13.4-3.9c-3.1-1.2-5.8-2.7-8.1-4.6c-4.7-3.6-7.1-8.9-7.1-16.1c0-7.1,2.6-12.8,7.7-17.2
	c5.1-4.3,11.7-6.5,19.7-6.5c10.9,0,20.7,3,29.4,9.1l-7.6,10.8c-6.6-4.9-13.9-7.3-22-7.3C259.1,190.2,255.9,191.1,253.5,193"/>
<path class="st0" d="M351.9,247.5c4.7,0,8.7-0.8,12-2.4c3.4-1.6,6.9-4.1,10.6-7.5l8.7,9c-8.5,9.4-18.8,14.1-30.9,14.1
	s-22.2-3.9-30.2-11.7c-8-7.8-12-17.7-12-29.6c0-11.9,4.1-21.9,12.2-29.8c8.1-8,18.4-11.9,30.9-11.9c12.4,0,22.8,4.6,31.1,13.8
	l-8.6,9.4c-3.8-3.7-7.4-6.2-10.8-7.7c-3.4-1.4-7.4-2.2-12-2.2c-8.1,0-14.9,2.6-20.4,7.9c-5.5,5.2-8.3,11.9-8.3,20.1
	c0,8.1,2.7,15,8.2,20.4C337.9,244.8,344.4,247.5,351.9,247.5"/>
<polygon class="st0" points="444.7,252.8 416.8,197.2 416.8,259.8 403.3,259.8 403.3,179.6 424.4,179.6 448.6,230 472.8,179.6 
	493.8,179.6 493.8,259.8 480.2,259.8 480.2,197.2 452.3,252.8 "/>
<polygon class="st1" points="563.3,252.8 535.4,197.2 535.4,259.8 521.9,259.8 521.9,179.6 543,179.6 567.2,230 591.4,179.6 
	612.4,179.6 612.4,259.8 598.9,259.8 598.9,197.2 570.9,252.8 "/>
<path class="st1" d="M685.5,229.1l-13.8-30.9l-13.7,30.9H685.5z M678.6,179.6l35.3,80.2H699l-8.1-18.2h-38.4l-7.8,18.2h-14.5
	l35.3-80.2H678.6z"/>
<polygon class="st1" points="791.9,239.5 791.9,179.6 805.4,179.6 805.4,259.8 790.7,259.8 745.3,201.3 745.3,259.8 731.7,259.8 
	731.7,179.6 745.3,179.6 "/>
<path class="st1" d="M878.5,229.1l-13.8-30.9l-13.7,30.9H878.5z M871.6,179.6l35.3,80.2H892l-8.1-18.2h-38.4l-7.8,18.2h-14.5
	l35.3-80.2H871.6z"/>
<path class="st1" d="M978.3,220.8h13.5v27.4c-7.6,8.3-18.4,12.5-32.5,12.5c-11.9,0-21.8-3.9-29.8-11.7c-8-7.8-12-17.7-12-29.6
	c0-11.9,4.1-21.9,12.2-29.8c8.1-8,18-11.9,29.5-11.9s21.1,3.4,28.8,10.1l-7.2,10.3c-3.1-2.7-6.3-4.5-9.5-5.6s-6.9-1.5-11.1-1.5
	c-8.1,0-14.9,2.6-20.4,7.9c-5.5,5.2-8.3,12.1-8.3,20.6c0,8.5,2.7,15.4,8,20.5c5.4,5.2,11.8,7.7,19.4,7.7c7.6,0,14-1.6,19.1-4.9
	V220.8z"/>
<polygon class="st1" points="1070.7,179.6 1070.7,192.3 1027.9,192.3 1027.9,213.6 1066.3,213.6 1066.3,225.6 1027.9,225.6 
	1027.9,247.1 1072,247.1 1072,259.8 1014.3,259.8 1014.3,179.6 "/>
<path class="st1" d="M1141.6,217c2.8-2.4,4.1-6.2,4.1-11.4c0-5.2-1.4-8.8-4.2-10.8c-2.8-2-7.9-2.9-15.1-2.9h-17.2v28.7h16.9
	C1133.6,220.6,1138.8,219.4,1141.6,217 M1159.6,205.7c0,13.2-5.8,21.6-17.3,25l21,29.1H1146l-19.2-27h-17.8v27h-13.5v-80.2h29.8
	c12.2,0,21,2.1,26.3,6.2C1156.9,189.9,1159.6,196.5,1159.6,205.7"/>
<g>
	<path class="st2" d="M8.2,4.8L8.1,5c38.7,46.1,95.7,150.2,63.4,247.8c-0.7,4.9-2.1,9.4-4.3,13.4C126.6,159.4,47.3,35,30.8,11.2
		C23.3,8.5,15.8,6.3,8.2,4.8"/>
	<path class="st2" d="M70.8,260.5C125.6,166.5,72.4,59.6,47.1,18c7.5,3.5,14.8,7.5,21.9,11.9c23.9,48.1,56.9,140.4,9.7,217.8
		C76.1,251.9,73.4,256.2,70.8,260.5"/>
	<path class="st2" d="M84.4,238.5c12-20.5,48.4-82.9-0.6-198.5c6.6,5,13,10.2,18.8,15.8c21.3,68.2,17.9,123.8-10.3,169.9L84.4,238.5
		z"/>
	<path class="st2" d="M99.1,214.7c10.8-18.6,36.2-62,17.5-144.2c5,5.9,9.4,12,13.2,18.1c3,33.8,2.4,71-22.7,113.3
		C104.4,206.2,101.7,210.4,99.1,214.7"/>
	<path class="st2" d="M112.7,192.7c7.9-13.6,24.5-41.9,24.1-90.8c0.9,2.1,1.8,4.2,2.5,6.3c1.5,4.1,2.6,8.1,3.3,12
		c-3.9,21.4-8.6,37.3-22,59.8L112.7,192.7z"/>
	<g>
		<defs>
			<path id="SVGID_1_" d="M125.2,286.1L125.2,286.1c1-4.1,2.7-8.1,5.2-11.9c38.4-95.3,149.2-138.3,208.6-148.6l0-0.3
				c-6.7-3.6-13.9-6.8-21.4-9.6C289.7,123.3,149.4,167,125.2,286.1"/>
		</defs>
		<clipPath id="SVGID_00000084493549605106623240000000006095334036684959_">
			<use xlink:href="#SVGID_1_"  style="overflow:visible;"/>
		</clipPath>
		
			<linearGradient id="SVGID_00000111168128163713970780000005365973390685896082_" gradientUnits="userSpaceOnUse" x1="-277.6254" y1="450.463" x2="-273.6854" y2="450.463" gradientTransform="matrix(54.3221 0 0 -54.3221 15206.3389 24670.9551)">
			<stop  offset="0" style="stop-color:#42C0EC"/>
			<stop  offset="0.5" style="stop-color:#2DAAE2"/>
			<stop  offset="1" style="stop-color:#2594D2"/>
		</linearGradient>
		
			<rect x="125.2" y="115.7" style="clip-path:url(#SVGID_00000084493549605106623240000000006095334036684959_);fill:url(#SVGID_00000111168128163713970780000005365973390685896082_);" width="213.8" height="170.4"/>
	</g>
	<g>
		<defs>
			<path id="SVGID_00000003068108104828582260000015321284495552988600_" d="M128.1,265.6c-0.7,4.9-1.5,9.9-2.2,14.9
				c18.8-107,128.6-154.6,174.9-170.1c-8-2.1-16.2-3.8-24.5-5C227,126.8,142.1,176.1,128.1,265.6"/>
		</defs>
		<clipPath id="SVGID_00000141442951748961124200000000742233889209436849_">
			<use xlink:href="#SVGID_00000003068108104828582260000015321284495552988600_"  style="overflow:visible;"/>
		</clipPath>
		
			<linearGradient id="SVGID_00000031175120868238099880000008082859529667842223_" gradientUnits="userSpaceOnUse" x1="-276.5606" y1="450.6326" x2="-272.6205" y2="450.6326" gradientTransform="matrix(44.3853 0 0 -44.3853 12401.1309 20194.375)">
			<stop  offset="0" style="stop-color:#42C0EC"/>
			<stop  offset="0.5" style="stop-color:#2DAAE2"/>
			<stop  offset="1" style="stop-color:#2594D2"/>
		</linearGradient>
		
			<rect x="125.9" y="105.4" style="clip-path:url(#SVGID_00000141442951748961124200000000742233889209436849_);fill:url(#SVGID_00000031175120868238099880000008082859529667842223_);" width="174.9" height="175"/>
	</g>
	<g>
		<defs>
			<path id="SVGID_00000096761687109125151970000013947007086747770255_" d="M233.9,103.6c-60.3,38.4-93.7,83.1-102,136.5l-2.2,14.9
				c4.1-23.4,16.6-94.6,128.8-151.3c-4.3-0.2-8.5-0.4-12.7-0.4C241.8,103.2,237.8,103.3,233.9,103.6"/>
		</defs>
		<clipPath id="SVGID_00000177449543285950310850000004361992919447342471_">
			<use xlink:href="#SVGID_00000096761687109125151970000013947007086747770255_"  style="overflow:visible;"/>
		</clipPath>
		
			<linearGradient id="SVGID_00000129186549431270338880000011494470525576717472_" gradientUnits="userSpaceOnUse" x1="-274.4077" y1="450.965" x2="-270.4678" y2="450.965" gradientTransform="matrix(32.6903 0 0 -32.6903 9100.1865 14921.2676)">
			<stop  offset="0" style="stop-color:#42C0EC"/>
			<stop  offset="0.5" style="stop-color:#2DAAE2"/>
			<stop  offset="1" style="stop-color:#2594D2"/>
		</linearGradient>
		
			<rect x="129.7" y="103.2" style="clip-path:url(#SVGID_00000177449543285950310850000004361992919447342471_);fill:url(#SVGID_00000129186549431270338880000011494470525576717472_);" width="128.8" height="151.7"/>
	</g>
	<g>
		<defs>
			<path id="SVGID_00000028309353588942960750000006629371001425085572_" d="M191.9,111.1c-24.2,23.9-47.7,52.7-55.9,101.2
				c-0.7,5-1.5,9.9-2.2,14.9c3.7-21.2,12.4-70.7,79.9-121.5C206.1,107.1,198.8,108.9,191.9,111.1"/>
		</defs>
		<clipPath id="SVGID_00000162327144405219994590000001947959975222496141_">
			<use xlink:href="#SVGID_00000028309353588942960750000006629371001425085572_"  style="overflow:visible;"/>
		</clipPath>
		
			<linearGradient id="SVGID_00000046336318888184989400000018058382337723364498_" gradientUnits="userSpaceOnUse" x1="-269.4046" y1="451.6254" x2="-265.4647" y2="451.6254" gradientTransform="matrix(20.2781 0 0 -20.2781 5596.8418 9324.5947)">
			<stop  offset="0" style="stop-color:#42C0EC"/>
			<stop  offset="0.5" style="stop-color:#2DAAE2"/>
			<stop  offset="1" style="stop-color:#2594D2"/>
		</linearGradient>
		
			<rect x="133.8" y="105.8" style="clip-path:url(#SVGID_00000162327144405219994590000001947959975222496141_);fill:url(#SVGID_00000046336318888184989400000018058382337723364498_);" width="79.9" height="121.5"/>
	</g>
	<g>
		<defs>
			<path id="SVGID_00000023964473095300631710000003300826344392533412_" d="M172,120c-3.8,2.2-7.2,4.6-10.3,7
				c-10.8,18.9-17.5,34-21.8,59.9l-2.2,14.9c2.7-15.5,8.4-47.8,40.3-84.9C175.9,117.8,173.9,118.9,172,120"/>
		</defs>
		<clipPath id="SVGID_00000008118240191805870550000010758619179693228424_">
			<use xlink:href="#SVGID_00000023964473095300631710000003300826344392533412_"  style="overflow:visible;"/>
		</clipPath>
		
			<linearGradient id="SVGID_00000080922561556549525170000004718532931219192726_" gradientUnits="userSpaceOnUse" x1="-256.4072" y1="452.9711" x2="-252.4672" y2="452.9711" gradientTransform="matrix(10.2218 0 0 -10.2218 2758.6001 4789.4609)">
			<stop  offset="0" style="stop-color:#42C0EC"/>
			<stop  offset="0.5" style="stop-color:#2DAAE2"/>
			<stop  offset="1" style="stop-color:#2594D2"/>
		</linearGradient>
		
			<rect x="137.6" y="116.8" style="clip-path:url(#SVGID_00000008118240191805870550000010758619179693228424_);fill:url(#SVGID_00000080922561556549525170000004718532931219192726_);" width="40.3" height="84.9"/>
	</g>
</g>
<g>
	<path class="st1" d="M263.7,306.4c0,7.7-5.4,12.9-12.6,12.9c-4,0-7.5-1.7-9.6-5v14.1h-3.4v-34.6h3.3v5c2.1-3.4,5.6-5.2,9.7-5.2
		C258.3,293.6,263.7,298.8,263.7,306.4z M260.3,306.4c0-5.9-4.1-9.8-9.4-9.8c-5.4,0-9.4,4-9.4,9.8c0,5.9,4,9.8,9.4,9.8
		C256.2,316.3,260.3,312.3,260.3,306.4z"/>
	<path class="st1" d="M268.1,306.4c0-7.5,5.5-12.8,12.9-12.8s12.8,5.3,12.8,12.8s-5.4,12.9-12.8,12.9S268.1,313.9,268.1,306.4z
		 M290.3,306.4c0-5.9-4-9.8-9.4-9.8c-5.4,0-9.4,3.9-9.4,9.8s4,9.8,9.4,9.8C286.3,316.3,290.3,312.3,290.3,306.4z"/>
	<path class="st1" d="M337.1,293.8l-9.6,25.2h-3.2l-8-20.7l-8,20.7h-3.2l-9.5-25.2h3.3l7.9,21.5l8.1-21.5h2.9l8.1,21.5l8-21.5H337.1
		z"/>
	<path class="st1" d="M363.5,307.5h-21.1c0.4,5.3,4.4,8.8,9.9,8.8c3.1,0,5.8-1.1,7.7-3.3l1.9,2.2c-2.3,2.7-5.8,4.1-9.7,4.1
		c-7.9,0-13.2-5.4-13.2-12.9s5.2-12.8,12.3-12.8s12.2,5.2,12.2,12.8C363.5,306.7,363.5,307.1,363.5,307.5z M342.3,304.9h17.9
		c-0.4-4.9-4-8.4-9-8.4C346.4,296.5,342.8,300,342.3,304.9z"/>
	<path class="st1" d="M383.2,293.6v3.3c-0.3,0-0.6,0-0.8,0c-5.3,0-8.5,3.4-8.5,9.3V319h-3.4v-25.2h3.3v4.9
		C375.3,295.4,378.5,293.6,383.2,293.6z"/>
	<path class="st1" d="M411.1,307.5H390c0.4,5.3,4.4,8.8,9.9,8.8c3.1,0,5.8-1.1,7.7-3.3l1.9,2.2c-2.3,2.7-5.8,4.1-9.7,4.1
		c-7.9,0-13.2-5.4-13.2-12.9s5.2-12.8,12.3-12.8s12.2,5.2,12.2,12.8C411.1,306.7,411.1,307.1,411.1,307.5z M390,304.9h17.9
		c-0.4-4.9-4-8.4-9-8.4C394,296.5,390.4,300,390,304.9z"/>
	<path class="st1" d="M441.1,283.4V319h-3.3v-5c-2.1,3.4-5.6,5.2-9.7,5.2c-7.2,0-12.6-5.2-12.6-12.9s5.4-12.8,12.6-12.8
		c4,0,7.5,1.7,9.6,5v-15.2H441.1z M437.8,306.4c0-5.9-4-9.8-9.4-9.8c-5.4,0-9.4,3.9-9.4,9.8s4,9.8,9.4,9.8
		C433.7,316.3,437.8,312.3,437.8,306.4z"/>
	<path class="st1" d="M488.8,306.4c0,7.6-5.4,12.9-12.6,12.9c-4.2,0-7.7-1.8-9.7-5.2v5h-3.3v-35.6h3.4v15.2c2.1-3.3,5.6-5,9.6-5
		C483.4,293.6,488.8,298.8,488.8,306.4z M485.4,306.4c0-5.9-4.1-9.8-9.4-9.8c-5.4,0-9.4,3.9-9.4,9.8s4,9.8,9.4,9.8
		C481.3,316.3,485.4,312.3,485.4,306.4z"/>
	<path class="st1" d="M516.2,293.8l-12.6,28.3c-2.1,4.9-4.8,6.5-8.4,6.5c-2.4,0-4.6-0.8-6.1-2.3l1.6-2.5c1.2,1.2,2.8,1.9,4.6,1.9
		c2.3,0,3.8-1.1,5.2-4.2l1.1-2.4l-11.3-25.2h3.6l9.5,21.5l9.5-21.5H516.2z"/>
	<path class="st1" d="M531.4,302.2c0-9.8,7.5-17.1,17.6-17.1c4.9,0,9.3,1.6,12.3,4.9l-2.3,2.3c-2.7-2.8-6.1-4-9.9-4
		c-8.1,0-14.2,6-14.2,13.9s6.1,13.9,14.2,13.9c3.8,0,7.2-1.2,9.9-4l2.3,2.3c-3,3.3-7.4,4.9-12.3,4.9
		C538.9,319.3,531.4,312.1,531.4,302.2z"/>
	<path class="st1" d="M568.1,283.4h3.4V319h-3.4V283.4z"/>
	<path class="st1" d="M578.5,306.4c0-7.5,5.5-12.8,12.9-12.8s12.8,5.3,12.8,12.8s-5.4,12.9-12.8,12.9S578.5,313.9,578.5,306.4z
		 M600.7,306.4c0-5.9-4-9.8-9.4-9.8c-5.4,0-9.4,3.9-9.4,9.8s4,9.8,9.4,9.8C596.7,316.3,600.7,312.3,600.7,306.4z"/>
	<path class="st1" d="M633.9,293.8V319h-3.3v-4.6c-1.8,3.1-5,4.8-9.1,4.8c-6.4,0-10.7-3.6-10.7-10.8v-14.6h3.4v14.3
		c0,5.4,2.8,8.1,7.6,8.1c5.3,0,8.6-3.4,8.6-9.2v-13.2H633.9z"/>
	<path class="st1" d="M666.5,283.4V319h-3.3v-5c-2.1,3.4-5.6,5.2-9.7,5.2c-7.2,0-12.6-5.2-12.6-12.9s5.4-12.8,12.6-12.8
		c4,0,7.5,1.7,9.6,5v-15.2H666.5z M663.1,306.4c0-5.9-4-9.8-9.4-9.8c-5.4,0-9.4,3.9-9.4,9.8s4,9.8,9.4,9.8
		C659.1,316.3,663.1,312.3,663.1,306.4z"/>
	<path class="st1" d="M673.4,306.4c0-7.5,5.5-12.8,12.9-12.8s12.8,5.3,12.8,12.8s-5.4,12.9-12.8,12.9S673.4,313.9,673.4,306.4z
		 M695.7,306.4c0-5.9-4-9.8-9.4-9.8c-5.4,0-9.4,3.9-9.4,9.8s4,9.8,9.4,9.8C691.7,316.3,695.7,312.3,695.7,306.4z"/>
	<path class="st1" d="M729.5,293.8V316c0,8.7-4.3,12.6-12.6,12.6c-4.6,0-9.1-1.4-11.8-3.9l1.7-2.6c2.4,2.2,6,3.5,9.9,3.5
		c6.4,0,9.3-2.9,9.3-9.2v-3.2c-2.1,3.2-5.7,4.9-9.8,4.9c-7.2,0-12.7-5-12.7-12.3c0-7.2,5.5-12.2,12.7-12.2c4.2,0,7.9,1.7,10,5v-4.8
		H729.5z M726.1,305.8c0-5.5-4-9.2-9.6-9.2c-5.6,0-9.6,3.7-9.6,9.2s4,9.3,9.6,9.3C722.1,315.1,726.1,311.3,726.1,305.8z"/>
	<path class="st1" d="M761.8,293.8V319h-3.3v-4.6c-1.8,3.1-5,4.8-9.1,4.8c-6.4,0-10.7-3.6-10.7-10.8v-14.6h3.4v14.3
		c0,5.4,2.8,8.1,7.6,8.1c5.3,0,8.6-3.4,8.6-9.2v-13.2H761.8z"/>
</g>
</svg>
